<?xml version="1.0" encoding="UTF-8"?>
<svg version="1.1" viewBox="0 0 1352 832" width="338" height="208" xmlns="http://www.w3.org/2000/svg">
<path transform="translate(0)" d="m0 0h1352v832h-1352z" fill="#00C3FE"/>
<path transform="translate(714,324)" d="m0 0 6 1h14l1 1-1 10-8 29-7 30-14 56-2 2h-19l-4-2-2-13-4-6-5-19-10-40-1-2-3 16-7 31-7 33-2 2h-20l-2-2-6-23-7-28-10-38-8-31v-6h22l2 3 8 31 6 27 6 21 4-16 7-30 7-27 2-8 1-1h16l3 3 5 14 3 4 4 12 9 39 2 10h2l3-17 7-35 7-29z" fill="#C5F1FF"/>
<path transform="translate(920,352)" d="m0 0 16 1 14 4 8 5 5 6 6 14 3 15-1 8-3 3-3 1-20 1h-44l2 9 7 8 8 4 4 1h21l10-2 6-3 5 1v11l-3 7-6 4-17 3h-21l-13-4-10-6-9-9-4-8-3-12v-19l3-10 8-17 8-8 13-6z" fill="#C5F1FF"/>
<path transform="translate(361,325)" d="m0 0h67l1 1v24l-2 1-43-1v28h39l2 4v13l-1 3h-40v53l-1 1-12 1h-11v-127z" fill="#C5F1FF"/>
<path transform="translate(535,352)" d="m0 0h10l13 4 8 7 4 9 2 9 1 12 1 59-1 1h-21l-1-2-1-61-4-8-5-5-6-1-7 2-9 7-1 2-1 65-3 1h-18v-99h17l5 5 6-2 7-4z" fill="#C5F1FF"/>
<path transform="translate(821,352)" d="m0 0h10l15 3 10 5 2 2v7l-3 12-5 1-12-6-11-4h-5l-9 7-1 6v2l5 2 15 4 12 3 10 5 5 6 3 6 1 6v11l-3 8-5 6-10 6-5 2-12 2h-10l-17-3-10-3-4-5 1-17 4-1 8 5 17 5h13l8-4 2-3v-6l-10-3-4-4-16-4-12-6-6-7-3-7v-12l4-13 8-8 10-4z" fill="#C5F1FF"/>
<path transform="translate(449,354)" d="m0 0h19l2 2v96l-8 1h-13l-1-1v-97z" fill="#C5F1FF"/>
<path transform="translate(748,354)" d="m0 0h20l2 3v90l-1 5-6 1h-15l-1-6z" fill="#C5F1FF"/>
<path transform="translate(449,494)" d="m0 0h15l6 3 3 6 1 20-1 7-3 2-6 1h-11l-6-3-2-4v-9l4-4 6-2h8v-9l-6-1-3 1-2 4-3 1-2-3v-7z" fill="#C5F1FF"/>
<path transform="translate(578,494)" d="m0 0h13l5 3 4 5v27l-5 3-5 1h-9l-6-3-3-6v-7l4-4 5-2h9v-9l-5-1-4 1-2 4h-4l-1-7 2-4z" fill="#C5F1FF"/>
<path transform="translate(413,494)" d="m0 0h16l4 4 2 5v27l-1 2h-5l-1-1-2-23-1-5h-5l-4 6-1 21-2 2h-6l-1-2 1-33 2-2z" fill="#C5F1FF"/>
<path transform="translate(759,307)" d="m0 0 7 1 11 9 1 6-7 14-3 3h-6l-10-7-5-6 2-8 9-11z" fill="#C5F1FF"/>
<path transform="translate(460,307)" d="m0 0 7 1 10 9 1 7-6 12-4 4-7-1-9-6-4-5 1-7 6-9z" fill="#C5F1FF"/>
<path transform="translate(490,494)" d="m0 0h16l5 5 1 2 1 20v9l-2 2-6-1v-13l-2-14-1-2-5 1-4 8-1 19-2 2-5-1-1-2v-32l2-2z" fill="#C5F1FF"/>
<path transform="translate(922,372)" d="m0 0 5 1 9 5 7 9 1 5-1 1-15 1h-26l-1-5 9-10 8-5z" fill="#00C3FE"/>
<path transform="translate(374,478)" d="m0 0h5l2 2-1 5-6 4-2 8h5l2 2v9l-6 3-1 18-3 3h-5l-1-2v-19l-4-3v-8l3-3 3-11 4-5z" fill="#C5F1FF"/>
<path transform="translate(535,493)" d="m0 0h8l4 3 1 3v7l-2 2-4-1-2-6h-3l-7 11v8l3 3 6 1 7-2 2 2-1 6-4 2h-12l-5-3-5-7v-13l3-9 7-6z" fill="#C5F1FF"/>
<path transform="translate(612,479)" d="m0 0 6 2 1 1v46l-2 4h-5l-2-2v-50z" fill="#C5F1FF"/>
<path transform="translate(385,494)" d="m0 0h7l2 2-1 34-2 2h-5l-1-1z" fill="#C5F1FF"/>
<path transform="translate(556,494)" d="m0 0 6 1 2 2-1 33-2 2-5-1-1-1v-34z" fill="#C5F1FF"/>
<path transform="translate(586,517)" d="m0 0h6l1 5-4 4h-6l-3-5 2-3z" fill="#00C3FE"/>
<path transform="translate(463,516)" d="m0 0 2 1v7l-4 2h-6l-2-3 1-4z" fill="#00C3FE"/>
<path transform="translate(558,478)" d="m0 0h5l3 3-1 6-4 2-5-3v-6z" fill="#C5F1FF"/>
<path transform="translate(389,478)" d="m0 0 5 1 2 2v5l-3 2h-6l-1-7z" fill="#C5F1FF"/>
</svg>
