<svg width="218" height="43" viewBox="0 0 218 43" fill="none" xmlns="http://www.w3.org/2000/svg">
<path d="M55.5038 6.56214C55.4269 6.02356 55.2907 5.54119 55.0954 5.11506C54.906 4.683 54.6486 4.31605 54.3231 4.0142C53.9975 3.71236 53.6069 3.48153 53.1512 3.32173C52.6954 3.15601 52.1657 3.07315 51.562 3.07315C50.5322 3.07315 49.5468 3.33653 48.6057 3.86328C47.6706 4.39003 46.8657 5.16241 46.191 6.1804C45.5162 7.19247 45.0575 8.43241 44.8149 9.90021C44.5663 11.3739 44.5841 12.6198 44.8682 13.6378C45.1522 14.6558 45.6553 15.4281 46.3774 15.9549C47.0994 16.4817 47.9932 16.745 49.0585 16.745C50.0469 16.745 50.9554 16.5438 51.784 16.1413C52.6126 15.7389 53.3021 15.1707 53.8525 14.4368C54.4089 13.697 54.7669 12.8269 54.9267 11.8267L55.6103 11.9599H50.4079L50.7985 9.69602H57.9541L57.5901 11.7646C57.3474 13.2975 56.8088 14.6262 55.9743 15.7507C55.1398 16.8693 54.1011 17.7334 52.8582 18.343C51.6212 18.9467 50.2659 19.2486 48.7922 19.2486C47.1468 19.2486 45.7678 18.8698 44.6551 18.1122C43.5424 17.3546 42.7552 16.2804 42.2936 14.8896C41.8378 13.4928 41.7698 11.8356 42.0894 9.91797C42.3202 8.46792 42.7316 7.16584 43.3234 6.01172C43.9212 4.8576 44.6521 3.87808 45.5162 3.07315C46.3803 2.26231 47.3421 1.64382 48.4015 1.21768C49.4669 0.785629 50.5855 0.569602 51.7574 0.569602C52.7398 0.569602 53.6306 0.714606 54.4296 1.00462C55.2345 1.29463 55.927 1.70597 56.507 2.23864C57.087 2.77131 57.5339 3.40459 57.8476 4.13849C58.1612 4.86648 58.3181 5.67436 58.3181 6.56214H55.5038ZM69.01 13.3448L70.3417 5.36364H73.0051L70.7323 19H68.1223L68.5218 16.6385H68.3797C67.9536 17.3665 67.3499 17.9731 66.5686 18.4585C65.7933 18.9379 64.8937 19.1776 63.8698 19.1776C62.9938 19.1776 62.251 18.9852 61.6414 18.6005C61.0377 18.2099 60.6086 17.6328 60.3541 16.8693C60.0997 16.1058 60.0641 15.1618 60.2476 14.0373L61.7036 5.36364H64.3581L62.9642 13.7177C62.8163 14.6469 62.9554 15.3867 63.3815 15.9371C63.8076 16.4876 64.4291 16.7628 65.2458 16.7628C65.743 16.7628 66.2579 16.6385 66.7906 16.3899C67.3233 16.1413 67.7938 15.7655 68.2022 15.2624C68.6165 14.7594 68.8858 14.1201 69.01 13.3448ZM74.069 19L76.3417 5.36364H78.9962L76.7235 19H74.069ZM78.2238 3.23295C77.7622 3.23295 77.3716 3.07907 77.052 2.77131C76.7383 2.45762 76.5933 2.08475 76.617 1.6527C76.6406 1.21472 76.8241 0.841855 77.1674 0.534091C77.5107 0.220406 77.9102 0.0635641 78.3659 0.0635641C78.8275 0.0635641 79.2152 0.220406 79.5289 0.534091C79.8426 0.841855 79.9905 1.21472 79.9728 1.6527C79.9491 2.08475 79.7656 2.45762 79.4224 2.77131C79.085 3.07907 78.6855 3.23295 78.2238 3.23295ZM85.7375 0.818181L82.7191 19H80.0646L83.0831 0.818181H85.7375ZM90.0552 10.9034L88.7235 19H86.0691L89.0875 0.818181H91.7065L90.5879 7.5831H90.7566C91.1886 6.84328 91.7686 6.2603 92.4966 5.83416C93.2305 5.40211 94.1301 5.18608 95.1955 5.18608C96.1306 5.18608 96.9148 5.37843 97.5481 5.76314C98.1873 6.14785 98.6371 6.72195 98.8975 7.48544C99.1639 8.24302 99.2053 9.18999 99.0218 10.3263L97.5659 19H94.9114L96.2963 10.646C96.4621 9.64571 96.3319 8.87038 95.9057 8.31996C95.4796 7.76361 94.8137 7.48544 93.9082 7.48544C93.2749 7.48544 92.689 7.61861 92.1504 7.88494C91.6177 8.15128 91.1679 8.5419 90.801 9.05682C90.434 9.56581 90.1854 10.1813 90.0552 10.9034ZM106.711 19.2752C105.373 19.2752 104.267 18.9882 103.391 18.4141C102.521 17.834 101.911 17.0202 101.562 15.9727C101.213 14.9192 101.156 13.6851 101.393 12.2706C101.624 10.8738 102.088 9.64276 102.787 8.57741C103.485 7.51207 104.355 6.68052 105.397 6.08274C106.445 5.48497 107.602 5.18608 108.868 5.18608C109.638 5.18608 110.363 5.31333 111.043 5.56783C111.73 5.82232 112.313 6.22183 112.792 6.76634C113.272 7.31084 113.603 8.01811 113.787 8.88814C113.976 9.75225 113.97 10.8028 113.769 12.0398L113.618 12.9808H102.769L103.08 10.9922H111.318C111.443 10.2938 111.41 9.67531 111.221 9.13672C111.031 8.59221 110.706 8.16312 110.244 7.84943C109.789 7.53575 109.214 7.37891 108.522 7.37891C107.812 7.37891 107.149 7.56534 106.533 7.93821C105.918 8.31108 105.403 8.78752 104.989 9.36754C104.58 9.94164 104.323 10.5335 104.216 11.1431L103.905 12.9631C103.752 13.9574 103.778 14.7564 103.985 15.3601C104.198 15.9638 104.571 16.4018 105.104 16.674C105.637 16.9463 106.302 17.0824 107.101 17.0824C107.616 17.0824 108.093 17.0114 108.531 16.8693C108.975 16.7214 109.368 16.5053 109.712 16.2212C110.055 15.9312 110.342 15.5702 110.573 15.1381L113.005 15.5909C112.68 16.3307 112.212 16.9788 111.603 17.5352C110.993 18.0856 110.274 18.5147 109.445 18.8224C108.623 19.1243 107.711 19.2752 106.711 19.2752ZM115.361 19L117.634 5.36364H120.199L119.835 7.52983H119.977C120.344 6.79593 120.88 6.21887 121.584 5.79865C122.289 5.37251 123.04 5.15945 123.839 5.15945C124.011 5.15945 124.206 5.16536 124.425 5.1772C124.644 5.18312 124.822 5.19792 124.958 5.22159L124.532 7.76065C124.431 7.73106 124.248 7.69851 123.981 7.663C123.715 7.62157 123.44 7.60085 123.156 7.60085C122.534 7.60085 121.957 7.73402 121.425 8.00035C120.892 8.26077 120.445 8.62476 120.084 9.09233C119.723 9.55398 119.489 10.0807 119.383 10.6726L118.015 19H115.361ZM124.783 19L127.056 5.36364H129.604L129.231 7.5831H129.4C129.814 6.83144 130.376 6.2455 131.087 5.82528C131.803 5.39915 132.614 5.18608 133.519 5.18608C134.419 5.18608 135.144 5.39915 135.694 5.82528C136.251 6.25142 136.615 6.83736 136.786 7.5831H136.928C137.366 6.84919 137.979 6.26622 138.766 5.83416C139.553 5.40211 140.438 5.18608 141.42 5.18608C142.646 5.18608 143.587 5.5767 144.244 6.35795C144.906 7.13329 145.108 8.29924 144.847 9.85582L143.32 19H140.657L142.148 10.1044C142.296 9.17519 142.154 8.50639 141.722 8.09801C141.29 7.68371 140.725 7.47656 140.027 7.47656C139.163 7.47656 138.446 7.7429 137.878 8.27557C137.31 8.80232 136.961 9.48 136.831 10.3086L135.366 19H132.729L134.247 9.93572C134.366 9.18999 134.229 8.59517 133.839 8.15128C133.454 7.70147 132.892 7.47656 132.152 7.47656C131.649 7.47656 131.161 7.60973 130.687 7.87606C130.22 8.1424 129.82 8.50935 129.489 8.97692C129.157 9.44448 128.941 9.98307 128.841 10.5927L127.438 19H124.783ZM152.481 19.2752C151.143 19.2752 150.036 18.9882 149.161 18.4141C148.29 17.834 147.681 17.0202 147.332 15.9727C146.982 14.9192 146.926 13.6851 147.163 12.2706C147.394 10.8738 147.858 9.64276 148.557 8.57741C149.255 7.51207 150.125 6.68052 151.167 6.08274C152.215 5.48497 153.372 5.18608 154.638 5.18608C155.408 5.18608 156.133 5.31333 156.813 5.56783C157.5 5.82232 158.083 6.22183 158.562 6.76634C159.042 7.31084 159.373 8.01811 159.556 8.88814C159.746 9.75225 159.74 10.8028 159.539 12.0398L159.388 12.9808H148.539L148.85 10.9922H157.088C157.213 10.2938 157.18 9.67531 156.991 9.13672C156.801 8.59221 156.476 8.16312 156.014 7.84943C155.558 7.53575 154.984 7.37891 154.292 7.37891C153.582 7.37891 152.919 7.56534 152.303 7.93821C151.688 8.31108 151.173 8.78752 150.759 9.36754C150.35 9.94164 150.093 10.5335 149.986 11.1431L149.675 12.9631C149.522 13.9574 149.548 14.7564 149.755 15.3601C149.968 15.9638 150.341 16.4018 150.874 16.674C151.407 16.9463 152.072 17.0824 152.871 17.0824C153.386 17.0824 153.863 17.0114 154.301 16.8693C154.745 16.7214 155.138 16.5053 155.482 16.2212C155.825 15.9312 156.112 15.5702 156.343 15.1381L158.775 15.5909C158.45 16.3307 157.982 16.9788 157.373 17.5352C156.763 18.0856 156.044 18.5147 155.215 18.8224C154.393 19.1243 153.481 19.2752 152.481 19.2752Z" fill="white"/>
<path d="M74.1336 39L76.9106 22.2727H83.0363C84.2234 22.2727 85.1735 22.4687 85.8868 22.8608C86.6056 23.2474 87.1011 23.7728 87.3733 24.4371C87.6456 25.096 87.7109 25.8393 87.5693 26.6669C87.455 27.3639 87.229 27.9492 86.8914 28.4229C86.5593 28.8967 86.1564 29.2778 85.6826 29.5664C85.2089 29.855 84.7107 30.0646 84.188 30.1953L84.1553 30.3587C84.6998 30.3859 85.2089 30.5656 85.6826 30.8977C86.1618 31.2244 86.5266 31.69 86.7771 32.2944C87.0276 32.8988 87.0847 33.6339 86.9486 34.4996C86.8016 35.3545 86.4694 36.1223 85.9522 36.8029C85.4403 37.4781 84.7352 38.0144 83.8367 38.4119C82.9383 38.804 81.8411 39 80.5452 39H74.1336ZM77.0168 36.8356H80.6595C81.8684 36.8356 82.7722 36.6014 83.3712 36.1332C83.9756 35.6649 84.3404 35.0795 84.4657 34.3771C84.5473 33.849 84.4902 33.3643 84.2941 32.9233C84.1036 32.4822 83.7823 32.131 83.3304 31.8697C82.8839 31.6083 82.323 31.4776 81.6478 31.4776H77.9152L77.0168 36.8356ZM78.2501 29.5092H81.6233C82.1896 29.5092 82.7178 29.4003 83.2078 29.1825C83.7033 28.9647 84.1144 28.6571 84.4412 28.2596C84.7733 27.8621 84.9802 27.3965 85.0619 26.8629C85.1817 26.166 85.0374 25.5861 84.629 25.1232C84.2261 24.6549 83.5264 24.4208 82.5299 24.4208H79.0832L78.2501 29.5092ZM92.3747 39.2777C91.5797 39.2777 90.8855 39.1307 90.2919 38.8366C89.6984 38.5372 89.2601 38.1043 88.977 37.538C88.6938 36.9717 88.6203 36.2775 88.7564 35.4553C88.8762 34.7474 89.1104 34.1648 89.4588 33.7074C89.8128 33.25 90.2429 32.8879 90.7493 32.6211C91.2557 32.3488 91.8057 32.1446 92.3992 32.0085C92.9927 31.8724 93.5917 31.7717 94.1961 31.7063C94.9584 31.6192 95.5764 31.5457 96.0501 31.4858C96.5293 31.4259 96.8887 31.3333 97.1282 31.2081C97.3678 31.0774 97.5121 30.8651 97.5611 30.571V30.5138C97.6755 29.806 97.572 29.256 97.2507 28.864C96.9349 28.4665 96.385 28.2678 95.6009 28.2678C94.7841 28.2678 94.098 28.4474 93.5427 28.8068C92.9927 29.1662 92.587 29.5691 92.3257 30.0156L90.1368 29.4929C90.5288 28.7306 91.027 28.1153 91.6314 27.647C92.2413 27.1733 92.9083 26.8303 93.6325 26.6179C94.3567 26.4001 95.0972 26.2912 95.8541 26.2912C96.355 26.2912 96.875 26.3511 97.4141 26.4709C97.9532 26.5852 98.4432 26.7976 98.8843 27.108C99.3308 27.4183 99.6629 27.8621 99.8807 28.4393C100.099 29.011 100.131 29.7543 99.9787 30.669L98.5984 39H96.2135L96.5075 37.2848H96.4095C96.2026 37.6006 95.914 37.911 95.5437 38.2159C95.1789 38.5208 94.7324 38.774 94.2042 38.9755C93.6761 39.177 93.0662 39.2777 92.3747 39.2777ZM93.2078 37.3175C93.8884 37.3175 94.4901 37.1841 95.0128 36.9173C95.541 36.6504 95.9684 36.302 96.2951 35.8718C96.6218 35.4362 96.826 34.9706 96.9077 34.4751L97.1772 32.858C97.0738 32.9451 96.8914 33.024 96.63 33.0948C96.3741 33.1656 96.0855 33.2282 95.7642 33.2827C95.443 33.3371 95.1272 33.3834 94.8168 33.4215C94.5119 33.4596 94.2587 33.495 94.0572 33.5277C93.578 33.5876 93.1288 33.6883 92.7096 33.8299C92.2957 33.9715 91.95 34.1757 91.6723 34.4425C91.3946 34.7038 91.2203 35.0523 91.1495 35.4879C91.0515 36.0923 91.1958 36.5497 91.5824 36.8601C91.9745 37.165 92.5163 37.3175 93.2078 37.3175ZM101.621 39L103.712 26.4545H106.073L105.738 28.4474H105.868C106.206 27.7723 106.699 27.2414 107.347 26.8548C107.995 26.4627 108.686 26.2667 109.421 26.2667C109.579 26.2667 109.759 26.2721 109.96 26.283C110.162 26.2885 110.325 26.3021 110.45 26.3239L110.058 28.6598C109.966 28.6326 109.797 28.6026 109.552 28.57C109.307 28.5318 109.054 28.5128 108.792 28.5128C108.221 28.5128 107.69 28.6353 107.2 28.8803C106.71 29.1199 106.298 29.4548 105.966 29.8849C105.634 30.3097 105.419 30.7943 105.321 31.3388L104.063 39H101.621ZM110.459 39L113.236 22.2727H115.678L114.657 28.4883H114.804C114.99 28.2269 115.243 27.9247 115.564 27.5817C115.891 27.2386 116.313 26.9392 116.83 26.6832C117.347 26.4219 117.995 26.2912 118.774 26.2912C119.787 26.2912 120.647 26.5471 121.355 27.0589C122.063 27.5708 122.564 28.3086 122.858 29.2724C123.152 30.2362 123.187 31.396 122.964 32.7518C122.741 34.1076 122.321 35.2701 121.706 36.2393C121.096 37.2031 120.353 37.9464 119.476 38.4691C118.6 38.9864 117.655 39.245 116.642 39.245C115.88 39.245 115.278 39.1171 114.837 38.8612C114.401 38.6052 114.075 38.3058 113.857 37.9627C113.645 37.6197 113.484 37.3147 113.375 37.0479H113.171L112.844 39H110.459ZM113.898 32.7273C113.756 33.6094 113.756 34.3826 113.898 35.0469C114.045 35.7112 114.331 36.2312 114.755 36.6069C115.186 36.9772 115.749 37.1623 116.446 37.1623C117.176 37.1623 117.818 36.969 118.374 36.5824C118.929 36.1903 119.386 35.6594 119.746 34.9897C120.105 34.32 120.356 33.5658 120.497 32.7273C120.628 31.8996 120.625 31.1564 120.489 30.4975C120.353 29.8387 120.07 29.3187 119.64 28.9375C119.215 28.5563 118.635 28.3658 117.9 28.3658C117.192 28.3658 116.563 28.5482 116.013 28.913C115.463 29.2778 115.009 29.7869 114.649 30.4403C114.29 31.0937 114.039 31.8561 113.898 32.7273ZM129.772 39.2532C128.58 39.2532 127.583 38.9809 126.783 38.4364C125.983 37.8865 125.419 37.1187 125.092 36.1332C124.771 35.1422 124.717 33.9905 124.929 32.6783C125.136 31.3932 125.552 30.2715 126.179 29.3132C126.81 28.3549 127.6 27.6116 128.547 27.0835C129.5 26.5553 130.559 26.2912 131.724 26.2912C132.917 26.2912 133.911 26.5662 134.706 27.1161C135.506 27.6661 136.07 28.4366 136.396 29.4276C136.723 30.4186 136.78 31.5729 136.568 32.8906C136.361 34.1648 135.939 35.281 135.302 36.2393C134.67 37.1922 133.881 37.9328 132.933 38.4609C131.986 38.9891 130.932 39.2532 129.772 39.2532ZM129.911 37.2031C130.695 37.2031 131.379 36.9962 131.961 36.5824C132.549 36.1686 133.028 35.6186 133.399 34.9325C133.769 34.2464 134.022 33.495 134.158 32.6783C134.284 31.8887 134.281 31.1673 134.15 30.5138C134.025 29.855 133.753 29.3268 133.333 28.9293C132.914 28.5318 132.331 28.3331 131.586 28.3331C130.801 28.3331 130.113 28.5427 129.519 28.962C128.931 29.3758 128.452 29.9285 128.082 30.62C127.717 31.3116 127.469 32.0657 127.338 32.8825C127.213 33.6665 127.213 34.388 127.338 35.0469C127.464 35.7003 127.736 36.223 128.155 36.6151C128.574 37.0071 129.16 37.2031 129.911 37.2031ZM149.045 29.5174L146.766 29.9094C146.717 29.6209 146.616 29.3486 146.464 29.0927C146.317 28.8368 146.091 28.6299 145.786 28.4719C145.481 28.3086 145.075 28.2269 144.569 28.2269C143.866 28.2269 143.251 28.3875 142.723 28.7088C142.2 29.0301 141.901 29.4384 141.824 29.9339C141.754 30.3369 141.849 30.6636 142.11 30.9141C142.372 31.1591 142.832 31.3633 143.491 31.5266L145.418 31.984C146.529 32.2508 147.324 32.6674 147.803 33.2337C148.288 33.7945 148.456 34.5241 148.309 35.4226C148.184 36.1686 147.857 36.8301 147.329 37.4073C146.807 37.9845 146.137 38.4364 145.32 38.7631C144.503 39.0898 143.594 39.2532 142.592 39.2532C141.165 39.2532 140.055 38.951 139.26 38.3466C138.465 37.7422 138.056 36.8873 138.035 35.782L140.452 35.4226C140.496 36.0379 140.716 36.5034 141.114 36.8192C141.517 37.1296 142.075 37.2848 142.788 37.2848C143.605 37.2902 144.288 37.1187 144.838 36.7702C145.388 36.4218 145.701 35.9998 145.777 35.5043C145.843 35.1177 145.756 34.7964 145.516 34.5405C145.282 34.2846 144.868 34.0885 144.275 33.9524L142.249 33.4869C141.116 33.2201 140.316 32.7899 139.848 32.1964C139.38 31.6029 139.222 30.8569 139.374 29.9585C139.494 29.2234 139.804 28.5836 140.305 28.0391C140.812 27.4891 141.451 27.0617 142.225 26.7567C142.998 26.4464 143.853 26.2912 144.789 26.2912C146.156 26.2912 147.182 26.5852 147.868 27.1733C148.554 27.7559 148.947 28.5373 149.045 29.5174ZM153.778 39.2777C152.983 39.2777 152.289 39.1307 151.696 38.8366C151.102 38.5372 150.664 38.1043 150.381 37.538C150.098 36.9717 150.024 36.2775 150.16 35.4553C150.28 34.7474 150.514 34.1648 150.863 33.7074C151.216 33.25 151.647 32.8879 152.153 32.6211C152.659 32.3488 153.209 32.1446 153.803 32.0085C154.396 31.8724 154.995 31.7717 155.6 31.7063C156.362 31.6192 156.98 31.5457 157.454 31.4858C157.933 31.4259 158.292 31.3333 158.532 31.2081C158.772 31.0774 158.916 30.8651 158.965 30.571V30.5138C159.079 29.806 158.976 29.256 158.654 28.864C158.339 28.4665 157.789 28.2678 157.005 28.2678C156.188 28.2678 155.502 28.4474 154.946 28.8068C154.396 29.1662 153.991 29.5691 153.729 30.0156L151.54 29.4929C151.933 28.7306 152.431 28.1153 153.035 27.647C153.645 27.1733 154.312 26.8303 155.036 26.6179C155.76 26.4001 156.501 26.2912 157.258 26.2912C157.759 26.2912 158.279 26.3511 158.818 26.4709C159.357 26.5852 159.847 26.7976 160.288 27.108C160.734 27.4183 161.067 27.8621 161.284 28.4393C161.502 29.011 161.535 29.7543 161.382 30.669L160.002 39H157.617L157.911 37.2848H157.813C157.606 37.6006 157.318 37.911 156.947 38.2159C156.583 38.5208 156.136 38.774 155.608 38.9755C155.08 39.177 154.47 39.2777 153.778 39.2777ZM154.611 37.3175C155.292 37.3175 155.894 37.1841 156.417 36.9173C156.945 36.6504 157.372 36.302 157.699 35.8718C158.026 35.4362 158.23 34.9706 158.311 34.4751L158.581 32.858C158.477 32.9451 158.295 33.024 158.034 33.0948C157.778 33.1656 157.489 33.2282 157.168 33.2827C156.847 33.3371 156.531 33.3834 156.221 33.4215C155.916 33.4596 155.662 33.495 155.461 33.5277C154.982 33.5876 154.533 33.6883 154.113 33.8299C153.699 33.9715 153.354 34.1757 153.076 34.4425C152.798 34.7038 152.624 35.0523 152.553 35.4879C152.455 36.0923 152.6 36.5497 152.986 36.8601C153.378 37.165 153.92 37.3175 154.611 37.3175Z" fill="#03DAC6"/>
</svg>
